<svg version="1.1" xmlns="http://www.w3.org/2000/svg" xmlnsXlink="http://www.w3.org/1999/xlink" x="0px" y="0px" viewBox="0 0 1000 1000" enable-background="new 0 0 1000 1000" xmlSpace="preserve">
<g><g transform="translate(0.000000,388.000000) scale(0.100000,-0.100000)">
<path d="M3949.4,2582c-322.1-9.6-971.9-46-1156-65.2c-201.3-21.1-371.9-72.8-523.3-161c-138-78.6-385.3-343.1-490.8-519.5c-115-195.5-274.1-559.8-389.2-893.3l-92-264.5H1210c-47.9,1.9-233.9,13.4-414.1,26.8c-362.3,28.8-467.7,17.3-559.8-67.1C121.1,532.8,63.6,266.3,124.9,134c46-93.9,116.9-128.4,435.2-203.2c145.7-32.6,264.5-67.1,264.5-76.7c0-7.7-11.5-44.1-26.8-78.6c-42.2-103.5-180.2-603.9-222.4-809c-21.1-105.4-47.9-306.7-61.3-452.4c-40.2-483.1,21.1-793.7,186-939.3l67.1-57.5v-446.7c0-391.1,5.7-456.3,36.4-523.3c42.2-95.8,136.1-176.4,218.5-191.7c34.5-5.8,256.9-9.6,494.6-5.8l433.2,5.8l70.9,55.6c126.5,95.8,145.7,164.9,145.7,550.2v335.5l1046.7-7.7l1048.6-9.6l-97.8,118.9c-310.6,371.9-500.3,795.6-571.3,1269.1c-72.8,500.3,30.7,1092.7,264.6,1510.6l57.5,103.5l-571.3-11.5c-316.3-7.7-776.4-23-1023.7-34.5c-247.3-11.5-483.1-17.2-521.4-13.4l-69,5.7l86.3,278c279.9,904.8,554,1355.3,874.2,1445.4c180.2,51.8,1282.5,107.4,2122.1,107.4c753.4,0,1922.8-55.6,2099.1-97.8c247.3-61.3,465.8-339.3,678.6-870.3c61.3-151.4,88.2-189.8,205.1-306.7c701.6-692,929.7-1773.2,565.5-2683.8l-53.7-134.2l126.5-40.3c172.5-53.7,266.5-105.4,402.6-218.5l115-95.8l40.3,55.6c93.9,134.2,105.4,197.4,103.5,624.9c0,360.4-5.8,427.5-51.8,642.2C8989.2-807.2,8855-320.3,8809-209.1c-17.3,38.3-26.8,70.9-23,74.8c1.9,3.8,128.4,34.5,281.8,69c375.7,84.3,440.9,134.2,440.9,333.6c0,226.2-116.9,410.2-281.8,440.9c-40.3,7.7-235.8,1.9-437.1-11.5c-199.4-13.4-389.2-24.9-419.8-26.8c-51.7-1.9-55.6,3.8-143.8,256.9c-243.4,694-419.8,1017.9-697.8,1278.6c-161,147.6-325.9,239.6-513.8,281.8C6675.4,2564.8,5015.2,2616.6,3949.4,2582z M2845.2-1238.6c72.9-26.8,115-109.3,161-314.4c49.8-216.6,34.5-302.9-65.2-360.4c-59.4-34.5-69-34.5-709.3,63.3c-425.6,63.3-669,109.3-707.4,130.4c-69,40.3-122.7,164.9-122.7,295.2c-1.9,78.6,7.7,101.6,53.7,149.5l55.6,55.6H2155C2525-1219.4,2818.3-1227.1,2845.2-1238.6z"/><path d="M5716.9,994.8C4846.5,837.6,4189,162.8,4062.5-699.9c-28.8-207-11.5-555.9,38.3-761.1c109.3-442.8,375.7-849.2,736.1-1121.4c592.4-448.6,1393.7-532.9,2057-220.5c95.8,46,209,105.4,249.2,134.2l74.8,49.8l174.4-174.4l174.5-174.5l9.6-128.4c17.2-239.6,28.8-253,759.1-983.4c749.6-749.5,753.4-753.4,1000.7-753.4c235.8,0,410.3,107.4,511.8,312.5c44.1,92,53.7,132.3,51.8,253c-1.9,245.4-7.7,251.1-753.4,998.8c-726.5,726.5-743.8,740-979.6,759.1l-130.4,11.5L7862-2323.6l-174.4,174.4l49.8,72.8c78.6,117,193.6,373.8,251.1,559.8c47.9,161,51.8,197.4,51.8,527.2c0,304.8-5.8,375.7-40.3,502.3C7840.9,80.3,7467.1,548.1,6968.7,801.1C6587.2,994.8,6117.5,1067.6,5716.9,994.8z M6376.3,314.2C6627.4,251,6790.4,157,6989.7-40.4c143.8-141.9,189.8-201.3,255-335.5c107.3-220.5,141.8-371.9,141.8-603.9c0-421.7-172.5-789.8-494.6-1050.5c-243.5-195.5-515.7-289.5-843.5-289.5c-318.2,0-569.4,84.3-809,266.5c-736.1,565.5-688.2,1702.3,93.9,2202.7C5632.5,341.1,6025.5,402.4,6376.3,314.2z"/></g></g>
</svg>