<?xml version="1.0" encoding="utf-8"?><!DOCTYPE svg PUBLIC "-//W3C//DTD SVG 1.1//EN" "http://www.w3.org/Graphics/SVG/1.1/DTD/svg11.dtd"><svg version="1.1" xmlns="http://www.w3.org/2000/svg" xmlns:xlink="http://www.w3.org/1999/xlink" x="0px" y="0px" viewBox="0 0 100 41.59875" enable-background="new 0 0 100 33.279" xml:space="preserve"><g transform="matrix(1.25,0,0,-1.25,0,125)"><g transform="matrix(0.99999788,0.00206114,-0.00206114,0.99999788,0.75416622,-2.1706495)"><g transform="matrix(0.8,0,0,-0.8,10.296068,92.107574)"><path fill="#010101" d="M8.527,20.381C8.527,20.381,8.527,20.381,8.527,20.381c-0.213,0-0.428-0.009-0.647-0.024
				c-3.974-0.288-7.082-3.376-7.392-7.339c-0.245-3.155,1.37-5.375,1.87-5.982c1.277-1.543,3.154-2.56,5.149-2.789
				c4.875-0.55,8.801,2.699,9.192,7.334c0.215,2.551-0.806,5.073-2.731,6.745C12.395,19.695,10.564,20.385,8.527,20.381z M8.617,5.2
				C8.292,5.2,7.962,5.218,7.624,5.258C5.886,5.456,4.252,6.342,3.141,7.683C2.702,8.215,1.285,10.166,1.5,12.939
				c0.27,3.459,2.983,6.153,6.453,6.404c2.047,0.15,3.821-0.454,5.349-1.782c1.682-1.461,2.573-3.665,2.385-5.894
				C15.372,7.928,12.398,5.208,8.617,5.2z"/></g><g transform="matrix(0.8,0,0,-0.8,10.579622,91.82402)"><path fill="#010101" d="M71.285,20.52L71.285,20.52c-0.215,0-0.433-0.009-0.653-0.024c-3.927-0.287-7.767-3.665-7.392-8.821
				c0.257-3.523,2.441-5.413,4.229-6.379c0.734-0.398,1.498-0.768,2.741-0.911c2.764-0.318,5.119,0.493,6.991,2.407
				c0.593,0.605,2.512,2.847,2.25,6.262C79.128,17.319,75.617,20.529,71.285,20.52z M71.382,5.332
				c-0.339-0.001-0.69,0.019-1.058,0.061c-1.063,0.122-1.704,0.432-2.374,0.796c-1.564,0.844-3.476,2.495-3.698,5.559
				c-0.329,4.523,3.022,7.484,6.452,7.734c4.157,0.303,7.432-2.527,7.733-6.506c0.23-2.99-1.444-4.946-1.962-5.475
				C75.051,6.046,73.385,5.336,71.382,5.332z"/></g><path fill="#010101" d="M74.395,79.415c-0.124,0-0.243,0.073-0.297,0.194c-0.072,0.165,0.004,0.356,0.168,0.429
			c0.421,0.184,1.065,0.25,1.748,0.32c1.117,0.115,2.506,0.257,2.636,0.967c0.051,0.645,0.077,1.519,0.075,1.602
			c0.152,1.022-0.138,2.282-0.27,2.779c-0.001,0.005-0.002,0.009-0.003,0.014c-0.559,1.734-1.617,4.104-2.775,5.111
			c-1.673,1.575-6.735,2.142-10.431,2.557c-1.058,0.119-2.023,0.227-2.801,0.344c-1.669,0.253-3.225,0.362-4.646,0.383
			c-1.864,0.005-3.209,0.791-4.633,1.624c-0.374,0.219-0.755,0.442-1.155,0.655l-1.16,0.625c-3.368,1.823-6.549,3.544-10.74,4.194
			c-0.26,0.04-0.524,0.075-0.789,0.106c-1.858-0.057-3.814,0.001-5.708,0.059c-4.22,0.129-8.584,0.261-12.622-0.878
			c-2.025-0.523-3.972-1.205-5.856-1.864c-3.736-1.308-7.596-2.66-12.371-2.928c-0.396-0.544-0.457-1.427-0.523-2.358
			c-0.063-0.896-0.128-1.823-0.469-2.69c-0.182-0.464-0.486-0.854-0.754-1.199c-0.271-0.348-0.528-0.678-0.611-1.016
			c-0.191-0.784-0.371-2.463-0.333-2.723c0.072-0.488,0.356-0.842,0.657-1.217c0.319-0.398,0.676-0.842,0.779-1.477
			c2.668-0.157,5.079-0.474,7.934-1.044c0.02,2.456,0.896,4.603,2.491,6.076c1.592,1.471,3.781,2.137,6.162,1.878
			c0.178-0.02,0.307-0.18,0.288-0.358c-0.02-0.178-0.179-0.311-0.358-0.287c-2.193,0.235-4.198-0.367-5.651-1.709
			c-1.542-1.426-2.351-3.551-2.277-5.988c0.003-0.099-0.039-0.194-0.115-0.258c-0.076-0.064-0.178-0.091-0.275-0.069
			c-3.097,0.634-5.643,0.97-8.513,1.126c-0.169,0.009-0.302,0.146-0.307,0.315c-0.017,0.583-0.316,0.956-0.664,1.389
			c-0.326,0.406-0.695,0.867-0.793,1.531c-0.061,0.421,0.165,2.23,0.345,2.97c0.115,0.473,0.428,0.874,0.73,1.261
			c0.253,0.324,0.514,0.66,0.662,1.037c0.304,0.774,0.366,1.65,0.425,2.498c0.078,1.105,0.151,2.149,0.766,2.845
			c0.058,0.066,0.139,0.105,0.226,0.11c4.749,0.244,8.606,1.594,12.336,2.9c1.896,0.664,3.857,1.351,5.902,1.878
			c4.126,1.164,8.54,1.03,12.811,0.9c1.883-0.057,3.829-0.116,5.715-0.061c0.32-0.033,0.592-0.07,0.861-0.111
			c4.303-0.667,7.531-2.414,10.95-4.265l1.157-0.623c0.407-0.218,0.796-0.445,1.177-0.668c1.405-0.821,2.619-1.53,4.307-1.534
			c1.455,0.024,3.041-0.133,4.742-0.391c0.771-0.117,1.728-0.223,2.776-0.341c3.998-0.448,8.973-1.006,10.794-2.72
			c1.254-1.091,2.357-3.516,2.966-5.42c0.011-0.033,0.016-0.066,0.016-0.1c0.13-0.457,0.442-1.822,0.275-2.905
			c0.008-0.013-0.02-0.957-0.077-1.648c-0.223-1.221-1.811-1.385-3.213-1.529c-0.631-0.064-1.227-0.126-1.554-0.269
			C74.484,79.423,74.439,79.415,74.395,79.415z M60.349,79.619L60.349,79.619c-3.626,0.016-7.258,0.083-10.772,0.147
			c-3.135,0.057-6.271,0.114-9.442,0.139l-16.173,0.077c-0.18,0.001-0.324,0.147-0.324,0.326c0.001,0.179,0.147,0.324,0.326,0.324
			c0,0,0,0,0.001,0l16.174-0.077c3.173-0.024,6.312-0.082,9.45-0.139c3.38-0.062,6.869-0.126,10.354-0.145
			c-0.505,2.51,0.113,4.972,1.723,6.807c1.684,1.918,4.149,2.851,6.757,2.554c0.178-0.02,0.306-0.181,0.286-0.359
			c-0.019-0.178-0.183-0.311-0.359-0.286c-2.4,0.27-4.654-0.58-6.195-2.337c-1.554-1.772-2.097-4.187-1.49-6.627
			c0.025-0.098,0.003-0.201-0.059-0.28C60.543,79.665,60.449,79.619,60.349,79.619z"/></g></g><text x="0" y="48.279" fill="#000000" font-size="5px" font-weight="bold" font-family="'Helvetica Neue', Helvetica, Arial-Unicode, Arial, Sans-serif">Created by Lorenzo Stella</text><text x="0" y="53.279" fill="#000000" font-size="5px" font-weight="bold" font-family="'Helvetica Neue', Helvetica, Arial-Unicode, Arial, Sans-serif">from the Noun Project</text></svg>